<?xml version="1.0" standalone="no"?>
<!DOCTYPE svg PUBLIC "-//W3C//DTD SVG 20010904//EN"
 "http://www.w3.org/TR/2001/REC-SVG-20010904/DTD/svg10.dtd">
<svg version="1.0" xmlns="http://www.w3.org/2000/svg"
 width="2400.000000pt" height="1800.000000pt" viewBox="0 0 2400.000000 1800.000000"
 preserveAspectRatio="xMidYMid meet">

<g transform="translate(0.000000,1800.000000) scale(0.100000,-0.100000)"
fill="#000000" stroke="none">
<path d="M11429 14686 c-327 -188 -1003 -579 -1504 -868 -500 -289 -1360 -785
-1910 -1102 -550 -318 -1003 -583 -1007 -589 -4 -7 -8 -506 -8 -1109 l0 -1098
95 0 95 0 -2 1037 -2 1036 23 16 c13 9 82 50 155 92 72 41 235 135 361 208
127 74 302 175 390 226 88 50 248 142 355 205 107 62 267 154 355 205 88 50
245 141 348 201 103 60 207 120 230 133 23 13 109 63 190 110 81 47 160 93
174 101 150 85 275 157 308 177 22 13 108 63 190 109 83 47 154 89 159 94 5 5
0 24 -12 44 -22 37 -23 36 32 70 16 10 26 13 22 8 -7 -12 24 -84 34 -80 4 2
73 41 153 87 l146 83 -16 34 c-9 18 -23 34 -31 36 -8 2 4 13 27 26 23 13 40
20 39 15 -5 -14 24 -73 35 -73 8 0 277 151 295 165 7 6 -35 65 -48 68 -9 2 3
12 28 25 34 18 42 19 42 8 0 -21 22 -66 32 -66 8 0 262 145 285 163 10 7 9 16
-4 38 -10 16 -21 29 -25 29 -22 0 -3 20 42 44 37 20 48 23 44 11 -9 -23 16
-77 33 -71 13 5 273 155 282 162 10 9 -21 55 -41 63 -22 8 -21 9 12 26 19 10
45 25 58 33 22 15 23 14 11 -11 -10 -22 -9 -31 5 -52 l17 -25 43 25 44 25 95
-55 c53 -30 100 -55 106 -55 5 0 20 18 32 40 24 43 30 46 60 30 19 -11 19 -12
-7 -56 -17 -29 -23 -49 -17 -55 12 -12 285 -170 288 -167 1 2 12 21 25 43 13
22 25 41 26 43 3 5 64 -28 64 -35 0 -3 -11 -25 -25 -49 l-25 -43 140 -80 c76
-45 145 -84 152 -86 8 -3 23 12 38 40 27 50 28 51 55 31 18 -13 17 -15 -8 -60
l-26 -46 22 -14 c68 -42 269 -156 276 -156 5 0 19 20 32 44 21 40 25 43 46 33
29 -13 29 -18 -2 -67 l-25 -40 37 -23 c81 -51 252 -147 262 -147 5 0 20 18 32
40 25 45 34 47 67 22 l22 -17 -25 -37 c-14 -20 -25 -41 -25 -46 0 -8 192 -123
312 -187 38 -20 249 -142 448 -260 58 -34 137 -79 175 -100 39 -21 114 -65
168 -97 54 -32 148 -87 210 -122 62 -35 254 -146 427 -246 173 -100 475 -274
670 -387 195 -113 437 -253 538 -311 l182 -105 0 -1039 0 -1038 105 0 105 0 0
1108 0 1107 -2476 1430 c-1362 787 -2491 1438 -2509 1447 l-32 17 -594 -343z"/>
<path d="M11963 14320 l-33 -20 28 -45 27 -46 104 3 c58 2 106 7 108 13 3 10
-170 115 -190 115 -7 0 -27 -9 -44 -20z"/>
<path d="M11800 14227 c-41 -24 -108 -63 -148 -86 l-73 -43 24 -41 25 -42 98
-5 c58 -3 102 -1 109 5 16 13 95 150 95 165 0 13 -43 90 -50 90 -3 0 -39 -20
-80 -43z"/>
<path d="M12240 14185 c0 -9 21 -52 46 -96 l46 -80 106 3 c59 2 107 7 108 13
3 10 -276 175 -296 175 -5 0 -10 -7 -10 -15z"/>
<path d="M11936 14070 c-25 -43 -46 -85 -46 -91 0 -7 14 -37 30 -66 17 -30 28
-59 24 -65 -4 -6 -3 -8 3 -5 6 4 14 0 17 -8 3 -9 -1 -18 -9 -21 -7 -3 -11 -12
-8 -20 4 -12 8 -11 18 3 13 17 14 17 21 0 3 -10 4 -21 0 -24 -3 -4 -6 2 -6 13
0 15 -2 16 -9 5 -12 -19 -41 -24 -35 -6 3 7 0 16 -5 20 -6 3 -9 11 -6 16 4 5
0 9 -7 9 -7 0 -28 27 -46 60 l-33 60 -104 0 -104 0 -31 -55 c-17 -30 -36 -53
-41 -50 -5 4 -6 -2 -2 -12 3 -10 2 -14 -3 -10 -5 5 -14 -7 -21 -25 l-13 -33 5
35 c6 35 6 35 -9 10 -8 -14 -13 -27 -10 -31 5 -8 -38 -5 -52 4 -6 3 -14 4 -18
0 -3 -4 -44 -7 -90 -8 -66 0 -83 2 -78 13 2 8 8 10 11 5 7 -9 140 -11 156 -2
6 3 23 5 38 4 16 -1 26 2 24 9 -3 6 -10 10 -17 8 -6 -1 3 23 21 55 18 32 40
70 48 85 14 24 14 29 -4 63 -11 20 -23 39 -26 41 -10 6 -290 -156 -295 -171
-3 -7 4 -28 16 -47 24 -41 18 -82 -7 -51 -14 17 -14 17 -9 0 3 -11 2 -16 -4
-12 -6 3 -7 18 -4 33 4 19 3 23 -4 13 -8 -11 -13 -8 -27 13 l-18 26 -66 -37
c-36 -20 -106 -61 -156 -91 -49 -30 -110 -66 -135 -79 -25 -14 -100 -57 -168
-96 -68 -40 -142 -83 -165 -96 -39 -22 -300 -172 -357 -206 -14 -8 -86 -49
-160 -91 -74 -42 -151 -86 -170 -99 -19 -12 -91 -54 -160 -92 -69 -39 -224
-128 -345 -198 -121 -71 -251 -146 -290 -168 -38 -22 -126 -72 -195 -112 -124
-73 -565 -327 -1005 -580 l-230 -132 -3 -1122 -2 -1121 -985 0 -985 0 0 -1080
0 -1080 985 0 985 0 0 -365 c0 -351 1 -365 19 -375 15 -8 32 -5 70 10 108 42
229 36 335 -17 58 -29 137 -101 168 -152 12 -20 22 -37 23 -38 1 -2 21 7 46
18 52 26 149 35 204 20 59 -15 130 -64 164 -111 l30 -41 15 29 c25 49 107 121
175 155 62 30 72 32 176 32 102 0 115 -2 176 -31 121 -57 207 -170 232 -303
l12 -61 35 7 c83 18 167 -5 219 -60 l23 -26 38 25 c214 142 506 61 621 -171
26 -53 33 -82 37 -145 l4 -78 -38 -6 c-148 -26 -232 -151 -222 -330 7 -120 56
-209 141 -252 48 -26 137 -30 194 -9 l50 18 194 -42 c242 -52 225 -46 198 -73
-29 -31 -49 -80 -49 -121 0 -19 20 -94 45 -166 102 -297 138 -336 313 -336 68
0 74 -7 46 -50 -20 -31 -14 -70 32 -189 19 -49 33 -92 32 -96 -2 -4 -61 27
-133 68 -71 41 -140 75 -151 76 -13 0 -19 6 -17 14 4 9 -1 10 -21 2 -14 -5
-25 -6 -25 -2 1 4 1 14 -1 22 -1 11 -4 9 -10 -5 -8 -18 -9 -18 -10 5 -1 23 -2
23 -10 5 l-9 -20 0 20 c-1 17 -3 17 -11 5 -9 -13 -14 -8 -12 11 1 4 -6 5 -16
3 -10 -3 -263 137 -612 337 -957 550 -2885 1661 -2890 1665 -2 3 -4 17 -5 32
0 26 -24 45 -165 124 l-30 17 0 286 0 285 -95 0 -95 0 2 -332 3 -332 120 -71
c202 -119 284 -165 293 -163 7 3 1131 -644 2502 -1441 355 -206 662 -384 682
-395 21 -12 38 -27 38 -33 0 -7 7 -13 15 -13 8 0 15 -4 15 -8 0 -5 12 -15 28
-23 15 -7 42 -24 60 -37 17 -14 32 -21 32 -18 0 4 16 -5 35 -20 19 -14 35 -22
35 -18 0 5 4 4 8 -2 4 -6 80 -53 169 -104 l161 -94 -65 -75 c-73 -85 -121
-172 -153 -279 -31 -103 -26 -244 13 -318 51 -99 152 -166 314 -206 72 -18
118 -22 253 -22 285 -1 527 59 825 204 301 146 515 321 597 488 38 77 48 188
25 265 -15 46 -15 48 6 61 12 8 108 63 212 123 105 61 249 144 320 185 72 41
787 454 1590 918 803 464 1559 901 1680 970 l220 127 3 332 2 331 -105 0 -105
0 0 -283 0 -284 -379 -219 c-209 -120 -376 -220 -371 -222 4 -2 46 6 92 17 45
10 84 18 85 17 2 -2 -1650 -955 -2607 -1504 -261 -150 -481 -270 -488 -267 -7
3 -10 0 -7 -5 3 -6 0 -10 -8 -10 -8 0 -20 -7 -27 -15 -7 -9 -15 -13 -18 -10
-3 3 -15 -3 -26 -12 -15 -14 -18 -14 -8 -2 6 9 9 19 6 22 -4 4 3 5 15 2 18 -3
20 -1 11 16 -12 22 -22 26 -14 5 4 -11 -1 -14 -20 -10 -20 3 -26 0 -26 -13 0
-15 2 -16 10 -3 6 9 10 10 10 3 0 -19 -20 -26 -26 -9 -5 14 -8 14 -21 1 -8 -9
-19 -13 -24 -10 -5 4 -9 1 -9 -4 0 -6 -3 -10 -7 -9 -5 1 -22 -6 -40 -15 -43
-23 -50 -22 -89 13 -71 62 -210 113 -354 130 -52 6 -102 13 -111 16 -10 3 -37
57 -70 142 -54 139 -82 182 -119 182 -35 0 -22 14 37 40 81 34 317 193 347
233 31 40 56 98 56 129 1 27 109 112 841 656 146 109 308 233 361 275 126 101
133 119 125 292 -5 113 -4 125 11 125 28 -1 105 -39 134 -67 20 -19 28 -23 31
-12 3 8 10 37 16 64 13 52 61 147 78 152 18 6 61 -37 84 -83 17 -35 22 -65 23
-128 1 -76 -2 -87 -40 -166 -84 -174 -261 -388 -551 -667 -225 -217 -330 -338
-392 -454 -37 -68 -81 -213 -68 -225 2 -3 21 5 41 17 27 16 46 40 71 89 63
125 154 230 490 565 259 259 343 348 387 415 113 172 176 326 185 451 8 104
-13 164 -78 229 l-49 49 22 15 c48 31 138 48 224 44 103 -5 190 -45 264 -120
l49 -50 47 41 c59 51 134 76 214 68 102 -9 176 -61 222 -156 17 -36 33 -68 34
-69 1 -2 22 7 46 21 58 34 141 57 203 57 96 0 221 -46 270 -100 10 -11 25 -20
34 -19 9 0 122 62 251 137 l235 137 3 368 2 367 980 0 980 0 0 1080 0 1080
-977 2 -978 3 -5 1120 -5 1120 -120 69 c-127 73 -318 183 -630 363 -104 60
-282 163 -395 228 -113 65 -257 148 -320 185 -63 37 -151 88 -195 113 -80 44
-378 217 -550 317 -49 29 -124 71 -165 95 -41 23 -142 81 -223 128 -82 48
-150 87 -153 87 -3 0 -28 15 -57 33 -49 31 -273 161 -338 196 -16 9 -96 55
-177 102 -169 99 -183 105 -175 81 3 -9 -4 -3 -14 13 -21 31 -308 203 -320
191 -6 -6 8 -35 64 -133 14 -24 20 -43 14 -43 -6 0 -11 -4 -11 -10 0 -5 6 -8
13 -6 6 1 9 1 4 -1 -4 -3 -5 -8 -2 -13 3 -5 -3 -7 -12 -5 -10 1 -16 9 -15 16
10 38 10 49 1 55 -5 3 -8 0 -7 -8 2 -8 -4 -12 -14 -10 -10 2 -18 -2 -18 -8 0
-5 3 -9 8 -7 8 2 12 -6 12 -30 0 -12 -6 -8 -16 12 -8 16 -21 37 -28 45 -7 8
-25 36 -40 63 l-27 47 -104 0 -103 0 -36 -63 c-40 -72 -60 -94 -71 -77 -4 6
-1 19 7 28 12 15 11 16 -4 3 -22 -17 -23 -29 -3 -51 13 -14 13 -17 0 -17 -8 0
-12 4 -9 8 2 4 0 10 -5 13 -5 4 -12 -2 -14 -11 -4 -16 -5 -16 -6 -1 0 9 19 54
44 101 25 47 45 91 45 97 0 6 -21 47 -46 90 l-46 80 -103 0 -103 0 -46 -80z
m987 -293 c-2 -4 -10 -3 -17 2 -7 6 -16 8 -20 4 -3 -4 -44 -7 -90 -8 -66 0
-83 2 -78 13 2 8 8 10 11 5 5 -7 146 -10 161 -3 3 1 8 2 13 1 4 0 7 5 7 12 0
8 3 7 9 -3 6 -8 7 -18 4 -23z m-745 11 c-4 -12 -158 -19 -158 -7 0 4 34 6 75
5 41 -1 75 2 75 6 0 5 3 8 6 8 3 0 4 -5 2 -12z m-1448 -961 c127 -33 202 -64
290 -123 139 -91 262 -223 346 -372 24 -42 44 -73 44 -69 0 4 -27 114 -59 245
-33 130 -63 254 -66 275 l-7 37 400 0 400 0 6 -37 c4 -21 16 -85 26 -143 35
-189 97 -530 151 -827 29 -161 55 -291 57 -289 5 6 28 106 103 461 38 182 78
371 89 420 11 50 35 162 53 250 l33 160 276 3 c306 3 279 8 292 -63 6 -31 129
-613 171 -810 13 -60 39 -181 56 -268 18 -86 36 -154 40 -150 4 5 16 64 28
133 12 69 37 213 56 320 20 107 56 308 80 445 25 138 50 282 57 320 l13 70
403 3 c253 1 402 -1 402 -7 0 -6 -70 -293 -155 -638 -86 -345 -210 -847 -276
-1114 -112 -455 -122 -486 -140 -482 -16 4 -19 11 -15 29 6 23 6 23 -32 10
-21 -8 -50 -12 -65 -9 l-26 5 32 56 c41 73 44 148 7 187 -13 14 -27 25 -32 25
-4 0 1 -9 12 -20 28 -28 30 -106 3 -150 -26 -42 -73 -74 -73 -49 0 5 4 8 9 4
18 -10 21 13 4 26 -10 8 -14 9 -10 2 4 -6 3 -14 -3 -18 -5 -3 -10 -16 -11 -28
0 -21 -1 -21 -8 -2 -5 11 -4 25 1 32 6 7 5 14 -3 19 -7 4 -9 3 -5 -4 3 -6 2
-13 -3 -17 -6 -3 -8 -13 -5 -23 5 -15 5 -15 -6 1 -6 9 -9 21 -6 25 3 5 -1 9
-9 9 -10 0 -11 -7 -4 -26 9 -25 8 -25 -6 -7 -13 17 -15 17 -15 4 0 -12 -7 -15
-22 -13 -81 15 -277 36 -416 47 -151 11 -163 13 -167 32 -6 23 -107 540 -132
674 -8 46 -17 81 -20 79 -3 -3 -152 -747 -153 -763 0 -6 -40 -11 -40 -5 0 4
-30 4 -67 -1 -377 -43 -452 -46 -607 -23 -115 17 -136 18 -156 5 -24 -15 -1
-28 90 -48 l85 -19 -45 -12 c-25 -6 -67 -19 -94 -27 -26 -8 -51 -13 -54 -10
-5 5 -135 526 -297 1185 -41 167 -76 306 -79 308 -2 3 -82 -38 -178 -90 -278
-151 -419 -227 -423 -227 -2 0 -13 29 -25 65 -26 77 -87 173 -138 215 -20 17
-62 43 -92 58 -48 24 -67 27 -150 27 -86 0 -101 -3 -163 -32 -271 -128 -371
-552 -205 -866 42 -79 149 -178 225 -208 88 -35 208 -33 288 4 102 48 186 143
231 264 14 38 27 70 29 72 4 3 441 -227 572 -301 l52 -29 -15 -41 c-20 -58
-98 -210 -136 -266 -253 -375 -647 -533 -1111 -446 -396 75 -721 367 -866 777
-61 173 -75 268 -75 507 0 233 12 317 70 495 76 233 232 452 422 594 134 101
319 179 487 206 135 22 353 13 475 -18z m4290 -2011 c0 -81 -1 -85 -32 -115
-41 -40 -120 -69 -211 -77 -55 -5 -82 -13 -112 -34 -135 -92 -323 -142 -529
-139 l-51 0 105 38 c110 39 170 67 232 109 44 29 48 42 12 42 -32 0 -167 30
-161 36 2 3 63 11 135 19 151 17 314 53 410 91 70 29 177 88 187 104 13 20 15
8 15 -74z m-1740 -241 c358 -40 689 -121 995 -242 119 -47 311 -138 250 -118
-11 4 -63 16 -115 28 -139 31 -481 30 -660 -1 -175 -30 -305 -65 -434 -118
-179 -74 -319 -120 -506 -168 -142 -37 -357 -86 -376 -86 -3 0 -3 55 -2 123
l3 122 140 12 c531 46 916 120 1080 205 l28 15 -89 32 c-289 105 -571 161
-808 161 l-60 0 30 31 29 31 180 -6 c99 -3 241 -13 315 -21z m885 -380 c55 -8
136 -22 180 -30 44 -8 105 -14 137 -15 70 0 196 24 238 45 25 13 35 14 46 4
20 -17 17 -44 -6 -60 -20 -14 -20 -15 11 -88 40 -96 78 -247 85 -341 l6 -75
-36 74 c-92 186 -251 312 -471 373 -152 42 -548 26 -850 -33 -168 -34 -376
-102 -442 -145 -27 -17 -33 -18 -33 -1 0 20 109 94 215 146 312 152 581 195
920 146z m-3618 -112 c-9 -3 -15 -8 -13 -12 3 -4 -1 -8 -9 -8 -8 0 -12 4 -9 9
3 4 1 8 -4 8 -6 0 -13 -7 -16 -16 -3 -9 -11 -12 -18 -8 -8 5 -9 2 -4 -12 6
-15 5 -16 -5 -7 -8 8 -9 17 -3 26 5 7 1 4 -10 -8 -10 -11 -23 -19 -29 -17 -5
2 -7 -5 -3 -15 4 -9 4 -14 0 -10 -4 4 -14 1 -22 -6 -11 -8 -10 -4 3 16 14 22
15 31 6 40 -10 9 -11 8 -5 -8 7 -18 6 -19 -12 -5 -17 14 -18 14 -6 -1 10 -13
10 -18 -1 -28 -8 -6 -18 -7 -22 -3 -5 4 -5 -1 -2 -11 4 -11 3 -16 -4 -12 -5 4
-7 16 -4 28 5 20 5 20 -5 4 -7 -10 -9 -25 -6 -33 4 -9 2 -12 -5 -8 -6 3 -9 17
-6 31 2 14 1 21 -4 16 -5 -5 -10 -21 -11 -36 -2 -17 -6 -23 -12 -17 -6 6 -14
6 -23 -1 -7 -7 -13 -8 -13 -3 0 5 -5 2 -11 -6 -9 -13 -10 -12 -5 2 3 10 0 20
-6 24 -6 4 -8 3 -4 -4 11 -17 -15 -26 -84 -29 -388 -14 -846 -115 -1102 -244
-43 -21 -78 -37 -78 -34 0 11 123 85 215 130 243 119 582 207 960 249 72 8
152 15 179 15 27 0 50 2 52 4 2 2 43 3 91 3 49 1 80 -1 70 -3z m66 0 c-7 -2
-19 -2 -25 0 -7 3 -2 5 12 5 14 0 19 -2 13 -5z m-328 -632 c277 -72 429 -259
412 -506 -8 -119 -143 -868 -172 -960 -109 -337 -454 -532 -905 -512 -344 15
-565 165 -611 412 -16 85 -8 152 66 585 78 457 83 481 136 588 106 218 342
371 631 412 107 15 352 4 443 -19z m1576 14 c218 -32 344 -115 406 -264 29
-73 29 -158 -1 -316 l-22 -120 -272 -3 -272 -2 0 21 c0 12 9 72 21 132 29 153
15 177 -108 177 -63 0 -115 -21 -131 -53 -19 -35 -40 -159 -35 -195 8 -52 56
-89 212 -164 203 -96 237 -115 308 -164 79 -56 137 -125 165 -194 44 -110 17
-366 -54 -510 -108 -221 -421 -351 -808 -337 -163 7 -262 28 -356 75 -120 61
-207 183 -220 307 -5 52 16 224 41 343 l5 22 276 0 c258 0 275 -1 270 -17 -3
-10 -15 -74 -27 -142 -24 -141 -20 -163 36 -187 42 -17 141 -18 174 -1 40 20
59 58 74 147 16 100 9 141 -29 181 -15 16 -109 70 -208 120 -219 111 -274 145
-338 211 -114 118 -135 238 -83 483 43 205 172 334 414 415 144 48 381 63 562
35z m-4762 -43 c173 -46 295 -130 347 -240 44 -91 44 -176 -1 -411 -40 -216
-59 -273 -114 -357 -134 -205 -366 -317 -683 -331 l-137 -6 -10 -51 c-13 -62
-91 -511 -91 -520 0 -3 -135 -6 -301 -6 l-301 0 6 28 c3 15 78 441 166 947 88
506 163 933 166 948 l6 28 431 -4 c406 -3 437 -5 516 -25z m1586 0 c176 -49
292 -128 345 -237 22 -45 25 -62 24 -165 0 -152 -40 -355 -89 -457 -33 -71
-116 -167 -188 -218 l-28 -20 55 -365 c30 -201 58 -386 62 -412 l6 -48 -300 0
c-231 0 -301 3 -305 13 -2 6 -26 162 -53 345 l-48 332 -31 0 -31 0 -52 -297
c-29 -164 -56 -318 -60 -343 l-8 -45 -297 -3 c-234 -2 -297 0 -297 10 0 7 75
446 167 976 l168 963 440 -3 c416 -4 444 -5 520 -26z m4492 6 c-4 -13 -31
-169 -62 -348 -31 -179 -58 -333 -61 -342 -5 -17 6 -18 125 -18 127 0 131 1
136 23 3 12 31 174 63 359 32 186 61 340 64 343 3 3 137 4 299 3 l295 -3 -147
-845 c-81 -465 -158 -902 -170 -972 l-22 -128 -298 0 c-243 0 -299 3 -299 13
0 8 29 180 65 382 36 203 65 375 65 382 0 10 -29 13 -125 13 -121 0 -125 -1
-129 -22 -3 -13 -33 -178 -66 -368 -33 -190 -63 -357 -66 -372 l-6 -28 -299 0
-299 0 5 23 c3 12 77 436 165 942 88 506 163 935 166 953 l6 32 300 0 300 0
-5 -22z m1501 -940 c-92 -530 -168 -969 -168 -975 0 -10 -67 -13 -300 -13
-165 0 -300 2 -300 4 0 8 330 1901 335 1924 l5 22 298 0 298 0 -168 -962z
m1012 951 c0 -13 146 -843 162 -919 11 -54 12 -48 94 430 46 267 83 488 83
493 1 7 571 10 571 3 0 -8 -330 -1900 -335 -1924 l-5 -22 -317 2 -317 3 -42
210 c-22 116 -60 309 -84 430 -23 121 -45 223 -49 227 -4 5 -40 -182 -80 -415
-40 -232 -75 -430 -78 -439 -4 -17 -26 -18 -289 -18 l-284 0 5 23 c5 23 335
1915 335 1923 0 2 142 4 315 4 219 0 315 -3 315 -11z m2355 -21 c-3 -18 -18
-105 -34 -193 l-27 -160 -319 -5 -320 -5 -27 -155 c-15 -85 -27 -163 -28 -172
0 -17 19 -18 271 -18 l271 0 -5 -22 c-3 -13 -18 -93 -32 -178 -14 -85 -29
-163 -31 -172 -5 -16 -29 -18 -276 -20 l-272 -3 -32 -185 c-18 -102 -35 -197
-38 -212 l-5 -28 314 0 c246 0 315 -3 315 -12 -1 -7 -16 -94 -34 -193 l-32
-180 -614 -3 -613 -2 6 32 c23 144 329 1896 332 1906 3 9 136 12 620 12 l616
0 -6 -32z m-8326 -2131 c56 -28 66 -58 69 -200 4 -146 -5 -191 -44 -228 -24
-23 -33 -24 -174 -27 -236 -5 -245 3 -245 234 0 139 2 155 21 181 35 47 58 53
209 53 91 0 148 -5 164 -13z m2922 3 l199 0 0 -55 0 -55 -70 0 -70 0 0 -170 0
-170 -75 0 -75 0 0 170 0 170 -191 0 -190 0 3 -27 3 -28 103 -3 103 -3 -3 -52
-3 -52 -102 -3 -103 -3 0 -29 0 -30 130 0 130 0 0 -55 0 -55 -200 0 -200 0 0
225 0 225 193 2 c105 2 198 2 205 1 8 -2 103 -3 213 -3z m-3690 -105 c34 -58
63 -105 65 -105 1 0 31 47 66 105 l63 105 72 0 73 0 0 -225 0 -225 -70 0 -69
0 -3 103 -3 102 -38 -62 -38 -63 -52 0 -52 0 -40 63 -40 62 -3 -102 -3 -103
-69 0 -70 0 0 225 0 225 75 0 75 0 61 -105z m1250 77 c43 -39 52 -109 19 -154
-20 -28 -21 -32 -6 -40 22 -13 46 -61 46 -96 0 -26 3 -28 30 -24 l30 4 0 113
0 114 -27 3 c-26 3 -28 7 -31 56 l-3 52 135 0 136 0 0 -55 c0 -54 0 -55 -30
-55 l-30 0 0 -115 0 -115 30 0 c30 0 30 -1 30 -55 l0 -55 -135 0 -135 0 -1 43
c0 33 -2 38 -9 21 -4 -12 -21 -31 -36 -43 -25 -20 -38 -21 -210 -21 l-184 0 0
225 0 225 175 0 175 0 31 -28z m499 -141 l0 -170 125 -3 125 -3 0 173 0 172
200 0 200 0 0 -55 0 -55 -125 0 -125 0 0 -30 0 -30 100 0 100 0 0 -55 0 -55
-100 0 -100 0 0 -30 0 -30 125 0 125 0 0 -55 0 -55 -400 0 -400 0 0 225 0 225
75 0 75 0 0 -169z m1229 151 c58 -31 71 -69 71 -207 0 -138 -13 -176 -71 -207
-29 -15 -58 -18 -201 -18 l-168 0 0 225 0 225 168 0 c143 0 172 -3 201 -18z
m1240 -169 c42 -100 77 -176 79 -168 2 9 15 15 33 15 l29 0 0 115 0 115 -30 0
c-30 0 -30 1 -30 55 l0 55 136 0 135 0 -3 -52 c-3 -49 -5 -53 -30 -56 l-28 -3
0 -114 0 -114 28 -3 c25 -3 27 -7 30 -55 l3 -51 -128 -4 c-70 -2 -160 -2 -200
0 -72 4 -72 4 -85 38 l-12 34 -81 0 -81 0 -13 -35 -12 -35 -79 0 -79 0 55 133
c31 72 69 165 85 206 48 120 39 112 126 109 l77 -3 75 -182z m511 17 l0 -170
150 0 150 0 0 115 0 115 -30 0 c-30 0 -30 1 -30 55 l0 55 136 0 135 0 -3 -52
c-3 -49 -5 -53 -30 -56 l-28 -3 0 -114 0 -114 28 -3 c25 -3 27 -7 30 -55 l3
-52 -133 -3 c-73 -2 -220 -2 -325 0 l-193 3 0 224 0 225 70 0 70 0 0 -170z
m747 61 l68 -110 3 110 3 109 74 0 75 0 0 -225 0 -225 -77 0 -78 1 -64 105
c-35 58 -68 107 -73 110 -4 3 -8 -45 -8 -105 l0 -111 -70 0 -70 0 0 225 0 225
74 0 75 0 68 -109z m651 57 l-3 -53 -128 -3 -128 -3 3 -117 3 -117 78 -3 77
-3 0 36 c0 35 0 35 -45 35 l-45 0 0 50 0 50 115 0 115 0 0 -130 c0 -105 -3
-132 -15 -136 -8 -3 -93 -7 -190 -7 l-176 -2 -30 33 -29 32 0 161 0 161 34 34
34 34 167 0 166 0 -3 -52z m-813 -622 c17 -9 21 -14 10 -11 -87 29 -192 19
-314 -30 -47 -19 -89 -32 -93 -29 -27 17 14 43 119 74 87 25 232 23 278 -4z
m-615 -41 c0 -2 -24 -16 -52 -31 -29 -14 -176 -108 -326 -208 l-273 -181 6
-34 6 -33 -30 22 c-17 12 -59 33 -94 47 -34 14 -63 26 -65 28 -5 5 200 122
458 262 240 130 246 133 308 133 34 0 62 -2 62 -5z m138 -190 c-4 -18 -304
-245 -323 -245 -39 0 -3 38 142 148 142 109 190 134 181 97z m12 -110 c0 -16
-267 -235 -287 -235 -39 0 1 45 124 143 133 105 163 122 163 92z m-989 -175
c33 -17 57 -35 54 -40 -3 -5 -115 -79 -250 -166 l-244 -157 6 -46 6 -46 -32
45 c-18 25 -53 63 -77 85 l-45 40 252 158 c138 86 255 157 260 157 5 0 37 -14
70 -30z m974 9 c0 -18 -243 -221 -256 -214 -23 15 -1 41 113 135 118 96 143
110 143 79z m-1704 -364 c24 -9 75 -34 113 -57 l70 -41 -26 -21 -26 -21 53
-73 c59 -80 103 -164 111 -214 3 -22 -5 -10 -26 37 -76 173 -179 267 -385 350
l-40 16 24 20 c28 23 73 24 132 4z m-447 -140 c-8 -13 -13 -29 -9 -35 10 -16
84 -12 158 9 37 10 67 17 67 15 0 -9 -132 -74 -170 -84 -93 -23 -130 23 -68
87 38 39 44 42 22 8z m-892 -75 c119 -27 237 -54 262 -61 l45 -11 -14 -28 -14
-28 -98 24 c-54 12 -189 44 -300 71 -168 39 -200 50 -190 61 16 19 48 31 72
26 11 -2 118 -26 237 -54z m628 29 c-103 -20 -202 -94 -249 -188 -27 -53 -51
-144 -51 -196 0 -34 -6 -47 -34 -74 l-34 -33 -104 12 c-387 44 -538 120 -538
267 0 21 5 45 10 53 8 12 10 9 10 -11 0 -15 6 -31 13 -37 6 -5 134 -26 282
-47 334 -45 315 -41 316 -74 1 -63 15 -60 27 6 39 207 171 333 347 331 l50 0
-45 -9z m503 -29 c-16 -39 -15 -42 5 -79 36 -63 26 -150 -22 -210 -9 -11 -12
-9 -16 14 l-5 28 -105 -2 c-122 -2 -196 11 -262 47 -47 25 -48 25 -69 6 l-22
-19 13 25 c23 44 73 114 114 158 41 45 56 43 56 -7 0 -39 38 -107 66 -120 37
-17 91 18 184 117 41 44 76 81 77 81 1 1 -6 -17 -14 -39z m956 -10 c-34 -41
-43 -59 -47 -101 -5 -49 -5 -51 -18 -28 -7 13 -13 38 -14 56 0 26 9 38 58 77
31 25 58 46 60 46 2 0 -16 -22 -39 -50z m-2619 -21 c-6 -18 -10 -55 -10 -81 0
-53 16 -65 75 -54 32 6 33 6 39 -36 10 -61 50 -123 97 -151 l40 -24 -29 -6
c-79 -16 -190 39 -229 112 -30 58 -31 148 -2 226 23 61 35 70 19 14z m1520 -4
c0 -2 -13 -11 -30 -20 -16 -9 -30 -23 -30 -33 0 -9 -5 -24 -10 -32 -12 -19
-27 -5 -39 36 -8 29 -8 30 30 31 21 1 47 7 56 12 21 12 23 13 23 6z m484 -152
c50 -79 65 -116 34 -85 -30 30 -64 13 -204 -104 -226 -189 -423 -320 -519
-345 -52 -14 -66 -22 -79 -42 -17 -26 16 -136 77 -258 l52 -106 -40 4 c-22 2
-124 12 -227 22 -199 20 -245 33 -280 81 -42 58 -124 350 -113 401 4 16 18 43
32 60 37 44 364 305 337 269 -6 -8 -34 -45 -62 -81 -29 -37 -52 -69 -52 -73 0
-3 26 -13 58 -23 62 -19 301 -25 397 -10 47 7 49 7 30 -9 -11 -9 -45 -28 -75
-43 -78 -37 -227 -41 -404 -11 l-128 21 -24 -22 c-13 -12 -24 -26 -24 -29 0
-12 160 -40 261 -46 131 -9 299 10 363 40 62 28 280 190 324 240 39 45 55 103
47 170 l-6 51 20 -32 c24 -39 32 -40 57 -12 19 22 73 59 86 59 3 0 31 -39 62
-87z m126 -447 c0 -33 -7 -52 -25 -75 -25 -29 -134 -91 -161 -91 -15 0 -227
-147 -232 -161 -6 -16 14 -10 52 16 44 30 45 21 4 -41 -34 -49 -119 -105 -183
-120 l-30 -7 38 36 c34 32 37 39 37 88 0 30 4 59 8 66 9 13 473 333 485 333 4
0 7 -20 7 -44z m-77 -449 c48 -128 53 -150 19 -91 -16 29 -39 66 -52 84 l-22
32 -32 -30 c-34 -32 -90 -72 -101 -72 -4 0 14 23 39 51 48 54 72 113 62 158
-6 25 -5 25 23 -7 16 -19 45 -75 64 -125z m-163 61 c-51 -184 -385 -305 -656
-237 -44 11 -46 13 -40 42 3 17 8 32 10 35 3 2 35 -4 73 -13 82 -21 174 -16
251 13 l52 20 0 -29 c0 -27 2 -29 28 -23 68 17 181 100 242 179 24 31 44 54
46 52 2 -2 -1 -19 -6 -39z m-778 -196 c-5 -53 32 -97 101 -117 99 -29 291 -14
417 34 69 26 67 26 75 -6 3 -16 27 -93 51 -171 45 -143 46 -144 72 -138 91 22
221 114 285 201 28 39 28 39 21 10 -23 -96 -98 -171 -247 -244 -135 -67 -232
-92 -383 -98 -97 -5 -131 -2 -171 11 -94 31 -156 118 -202 284 -16 60 -17 73
-6 68 8 -3 38 -8 67 -11 36 -3 45 -2 28 4 -42 14 -84 38 -103 59 -23 25 -32
88 -18 125 14 37 17 34 13 -11z m1420 -184 c71 -94 58 -216 -37 -333 -22 -27
-21 -22 10 55 19 47 35 91 35 98 0 7 -11 18 -25 24 -22 10 -25 17 -25 67 -1
31 -9 79 -19 108 l-18 52 27 -19 c15 -11 38 -34 52 -52z m188 -158 c33 -104
26 -220 -20 -310 -117 -230 -571 -495 -990 -579 -216 -43 -456 -54 -563 -26
-85 22 -173 70 -234 127 -57 55 -74 87 -22 43 91 -76 248 -125 402 -125 250 0
501 64 782 199 333 160 523 318 587 486 19 48 23 80 23 161 0 56 3 100 6 98 4
-2 16 -35 29 -74z m-865 -185 c-91 -78 -203 -109 -321 -90 l-49 8 86 13 c91
14 173 38 261 78 69 32 70 31 23 -9z"/>
<path d="M10330 12810 c-265 -28 -489 -138 -672 -328 -215 -224 -329 -503
-345 -848 l-6 -121 74 -12 c108 -18 269 -74 388 -137 58 -30 109 -50 113 -46
5 5 11 33 15 62 l6 54 32 -37 c18 -20 35 -37 39 -37 4 0 4 17 0 38 -7 41 -60
94 -98 98 -11 1 -56 19 -98 39 -74 34 -93 55 -66 71 7 5 9 2 5 -9 -3 -9 1 -21
11 -29 15 -11 16 -11 7 2 -9 14 -10 22 -6 55 1 6 6 3 11 -5 6 -9 10 -10 10 -3
0 6 -4 15 -10 18 -5 3 -10 11 -10 17 0 7 4 7 13 -1 10 -8 14 -7 14 4 0 7 -5
13 -10 12 -5 -1 -12 4 -15 12 -2 8 0 11 6 7 7 -4 9 5 7 25 -4 25 -2 29 9 20
10 -9 13 -7 13 6 0 43 3 49 13 33 7 -11 8 -5 4 18 -5 25 -3 32 7 30 15 -3 14
30 -1 46 -5 5 -6 -1 -3 -14 4 -15 2 -21 -5 -16 -6 3 -14 1 -18 -5 -4 -7 -3 -9
3 -6 6 4 8 -3 5 -19 -5 -30 -9 -28 -14 8 -2 14 -10 33 -18 42 -10 13 -10 16 0
14 7 -2 15 3 18 11 2 8 0 11 -5 8 -5 -3 -10 0 -10 8 0 11 4 12 14 4 7 -6 13
-8 13 -3 0 5 7 0 15 -10 8 -11 18 -17 21 -13 7 6 95 -37 151 -73 l32 -21 16
37 c34 81 40 74 -107 138 -73 33 -169 72 -213 87 -96 34 -93 34 60 9 170 -28
195 -27 260 15 63 40 110 100 126 159 6 23 18 49 26 59 21 23 66 22 87 -2 19
-21 17 -58 -2 -53 -21 4 -53 -18 -45 -30 16 -27 8 -64 -19 -90 -29 -27 -123
-68 -156 -68 -9 0 -24 -5 -32 -10 -10 -7 7 -10 58 -10 70 0 74 1 125 43 29 23
75 52 102 64 59 25 176 48 208 39 16 -4 30 3 53 25 59 58 150 54 204 -7 36
-42 46 -76 34 -123 -8 -32 -6 -41 22 -81 17 -25 39 -61 49 -80 10 -19 21 -37
24 -40 3 -3 6 -11 6 -19 0 -8 6 -16 13 -18 6 -3 12 3 12 12 0 10 5 13 13 9 9
-6 9 -5 0 7 -10 12 -10 18 0 29 9 11 7 10 -7 0 -18 -14 -19 -13 -13 3 4 10 7
21 7 23 0 3 5 2 12 -2 7 -4 8 -3 4 5 -4 6 -12 9 -17 6 -5 -4 -9 -2 -9 4 0 5 5
12 10 14 6 3 5 4 -2 3 -7 -2 -23 6 -35 17 -17 15 -20 24 -12 38 5 11 6 19 2
19 -4 0 3 6 17 13 19 10 25 21 26 48 0 19 4 41 8 47 4 7 4 12 -1 12 -9 0 -8
102 1 125 3 8 1 17 -4 20 -5 3 -7 12 -4 20 4 8 9 13 13 10 4 -2 8 2 8 10 0 8
-5 11 -11 7 -21 -12 -54 -10 -49 5 3 7 9 13 14 13 5 0 9 5 9 11 0 5 -4 8 -8 5
-4 -2 -8 11 -8 29 0 18 4 32 8 29 4 -2 5 -13 3 -24 -2 -11 0 -20 6 -20 5 0 7
20 5 45 -3 25 0 47 5 50 5 4 9 32 9 64 0 32 5 63 13 70 6 7 8 11 2 9 -5 -2
-10 2 -10 7 0 6 3 9 8 7 4 -1 2 7 -5 17 -9 15 -9 23 2 36 11 14 11 16 -1 13
-8 -2 -15 7 -17 20 -2 12 -8 23 -13 23 -15 2 -22 5 -63 23 -101 45 -336 72
-486 56z m552 -107 c13 -35 16 -73 6 -79 -5 -3 -5 -10 -1 -16 9 -16 3 -131 -8
-144 -5 -6 -6 -13 -3 -16 3 -3 1 -9 -5 -12 -6 -4 -8 2 -6 14 2 11 0 22 -4 24
-4 3 -6 26 -6 53 1 26 -3 55 -9 63 -9 13 -8 13 5 3 11 -9 15 -28 14 -63 -1
-28 2 -53 7 -56 4 -3 8 22 8 55 0 33 -4 62 -9 65 -5 4 -8 14 -6 24 1 9 -2 22
-6 28 -6 7 -4 16 5 23 11 9 12 19 6 37 -13 33 -2 30 12 -3z m5 -408 c-4 -8 -2
-17 3 -20 5 -3 6 -13 3 -21 -3 -9 -6 -61 -7 -116 -1 -90 -3 -101 -19 -104 -17
-2 -17 -1 -3 15 18 19 22 56 6 46 -6 -4 -8 -10 -5 -15 3 -4 -3 -14 -13 -21
-15 -13 -16 -12 -3 4 7 9 10 17 5 17 -4 0 -3 5 4 12 9 9 8 16 -6 32 -17 21
-17 21 6 2 12 -11 22 -15 22 -11 0 5 -10 20 -22 34 l-23 26 23 -19 c27 -24 29
-10 2 19 -16 17 -17 22 -6 22 8 0 13 -4 10 -8 -2 -4 0 -10 6 -14 6 -4 10 5 10
20 0 14 -4 24 -8 21 -5 -3 -9 1 -9 9 0 8 4 12 9 9 4 -3 8 2 8 11 0 9 -4 14 -8
11 -4 -2 -8 6 -8 19 0 13 4 21 8 19 4 -3 8 0 8 5 0 6 3 11 6 11 3 0 4 -7 1
-15z m-17 -380 c-7 -8 -7 -15 -1 -19 5 -3 11 -3 14 1 2 5 2 2 0 -6 -2 -7 1
-19 6 -25 6 -8 6 -17 0 -26 -9 -13 -10 -13 -6 0 2 8 -4 27 -15 42 -12 17 -15
29 -8 33 8 5 7 12 -2 23 -12 15 -11 16 5 3 13 -10 14 -17 7 -26z m-1141 -79
c9 -11 9 -16 -1 -22 -7 -4 -10 -4 -6 1 4 4 3 14 -3 22 -6 7 -9 13 -6 13 2 0
10 -6 16 -14z m26 -64 c2 -21 -1 -31 -8 -29 -7 1 -12 -7 -12 -18 0 -11 -3 -25
-7 -30 -4 -6 -5 -23 -4 -38 2 -16 -4 -33 -15 -43 -11 -10 -19 -24 -20 -33 0
-15 -18 20 -23 44 -1 6 -5 15 -8 21 -4 6 -1 11 7 11 7 0 12 -8 10 -17 -2 -9 1
-23 6 -31 6 -10 9 -8 9 11 0 20 2 22 10 10 8 -12 10 -10 10 8 0 13 -4 21 -8
18 -4 -2 -9 5 -9 17 -2 17 0 19 7 7 5 -8 10 -10 11 -5 0 6 2 23 4 38 3 24 1
26 -10 17 -8 -7 -12 -17 -8 -23 3 -6 1 -7 -6 -3 -8 6 -9 12 -2 20 6 7 7 16 3
20 -4 4 0 6 8 4 9 -2 14 3 12 11 -2 11 0 12 11 3 8 -7 17 -9 20 -5 11 10 8 23
-4 21 -6 -2 -14 4 -16 12 -4 13 -3 13 6 0 9 -13 11 -12 11 4 0 29 10 13 15
-22z"/>
<path d="M10871 12666 c-8 -10 -9 -16 -1 -21 6 -3 7 -12 4 -18 -4 -7 -3 -9 1
-4 7 6 15 57 9 57 -1 0 -7 -6 -13 -14z"/>
<path d="M10957 12404 c-10 -19 -12 -32 -7 -29 12 7 33 55 27 61 -2 2 -11 -12
-20 -32z"/>
<path d="M10988 11933 c7 -3 16 -2 19 1 4 3 -2 6 -13 5 -11 0 -14 -3 -6 -6z"/>
<path d="M9767 11878 c-7 -20 -7 -28 0 -30 3 -2 8 7 9 20 4 24 -1 30 -9 10z"/>
<path d="M12100 11890 c-1 -3 -3 -23 -5 -45 -2 -22 -6 -60 -9 -85 l-7 -45 26
28 c28 32 32 75 10 122 -7 17 -14 28 -15 25z"/>
<path d="M9783 11735 c0 -8 4 -12 9 -9 5 3 6 10 3 15 -9 13 -12 11 -12 -6z"/>
<path d="M9763 11695 c0 -6 6 -12 12 -12 6 0 12 6 12 12 0 6 -6 12 -12 12 -6
0 -12 -6 -12 -12z"/>
<path d="M12416 11690 c3 -14 8 -50 9 -82 3 -44 1 -56 -10 -54 -8 1 -18 6 -22
11 -4 4 -3 5 4 1 6 -3 14 -2 17 3 4 5 -2 8 -11 7 -10 -2 -16 -6 -15 -11 2 -4
0 -11 -5 -14 -5 -3 -22 -66 -38 -139 -15 -73 -30 -131 -32 -129 -3 4 -29 122
-37 172 -2 11 -4 20 -6 20 -1 0 -3 10 -4 22 -2 13 -6 26 -11 30 -4 5 -4 -3 0
-16 4 -13 3 -21 -2 -18 -5 3 -9 -5 -9 -18 0 -13 4 -21 10 -18 6 4 6 -1 2 -13
-4 -10 -9 -27 -11 -37 -2 -9 -6 -21 -10 -26 -3 -5 -1 -12 4 -16 6 -3 8 -13 5
-23 -5 -13 -4 -14 4 -4 7 11 10 11 15 -3 4 -9 3 -13 -2 -10 -5 3 -12 1 -16 -5
-4 -6 -11 -7 -17 -4 -7 4 -7 0 0 -13 7 -11 7 -25 1 -35 -6 -11 -5 -19 2 -24 7
-4 9 -3 6 2 -3 6 -1 16 4 24 7 11 8 8 5 -10 -3 -14 -5 -29 -5 -34 -1 -5 -9 -2
-18 5 -15 11 -16 11 -6 0 7 -9 8 -22 3 -36 -29 -77 121 67 188 180 69 117 76
201 25 295 -13 25 -21 34 -17 20z m-152 -296 c-10 -15 -11 -24 -4 -27 6 -3 5
-4 -2 -2 -7 1 -11 9 -9 16 5 22 9 43 10 54 1 6 5 4 10 -4 6 -9 4 -22 -5 -37z
m-4 -88 c0 -3 -4 -8 -10 -11 -5 -3 -10 -1 -10 4 0 6 5 11 10 11 6 0 10 -2 10
-4z m-3 -91 c0 -8 -4 -12 -9 -9 -4 3 -8 -3 -9 -13 0 -11 -3 -13 -6 -5 -3 7 1
19 7 27 15 19 17 19 17 0z"/>
<path d="M13316 11685 c-11 -8 -15 -15 -9 -15 6 0 16 7 23 15 16 19 11 19 -14
0z"/>
<path d="M11902 11550 c37 -31 57 -82 44 -115 -5 -14 -8 -14 -29 0 -36 23 -71
14 -72 -18 -1 -17 2 -24 9 -20 6 4 5 0 -2 -9 -17 -21 -24 -100 -8 -91 6 4 3
-3 -7 -15 -18 -20 -18 -20 2 -15 27 7 80 68 109 126 41 82 21 152 -50 176
l-33 12 37 -31z m-37 -119 c3 -5 2 -12 -3 -15 -5 -3 -9 1 -9 9 0 17 3 19 12 6z
m-14 -84 c-10 -9 -11 -8 -5 6 3 10 9 15 12 12 3 -3 0 -11 -7 -18z"/>
<path d="M13039 11538 c-1 -7 -2 -24 -4 -38 -23 -212 -26 -266 -15 -250 40 55
76 190 65 246 -6 34 -44 68 -46 42z"/>
<path d="M13714 11370 c45 -8 75 -39 78 -79 3 -55 -2 -91 -14 -113 -7 -13 -12
-27 -13 -33 0 -5 -7 -10 -15 -10 -8 -1 -14 -7 -12 -14 1 -7 -2 -10 -8 -6 -19
12 -11 34 11 30 12 -3 19 -2 15 2 -3 3 0 13 6 22 10 12 8 12 -8 -1 -16 -14
-23 -15 -34 -5 -7 6 -10 7 -7 2 3 -6 2 -17 -3 -25 -5 -9 -5 -19 1 -26 9 -11 0
-12 -29 -5 -1 1 2 10 8 20 5 11 6 22 2 25 -8 5 -10 -1 -14 -43 -1 -11 -6 -17
-11 -14 -4 2 -5 13 -2 23 3 10 2 21 -3 24 -5 3 -8 -10 -6 -29 1 -23 -1 -33 -8
-29 -6 4 -8 2 -4 -4 3 -6 -2 -34 -13 -61 -11 -29 -15 -53 -10 -57 5 -3 6 -11
2 -17 -13 -20 -12 -36 3 -48 8 -6 12 -15 9 -19 -3 -4 1 -13 9 -19 16 -13 33
15 117 188 37 75 53 121 56 161 10 104 -32 171 -106 169 l-36 -1 39 -8z m-77
-384 c-3 -8 1 -20 8 -26 8 -7 14 -15 13 -18 -2 -22 3 -42 11 -38 5 4 4 -5 -2
-18 -7 -13 -15 -22 -19 -19 -5 2 -6 8 -3 13 3 4 -1 13 -9 19 -15 12 -16 28 -3
48 4 6 3 14 -2 18 -10 5 -4 35 6 35 3 0 3 -6 0 -14z"/>
<path d="M13637 10943 c-5 -9 10 -53 17 -53 3 0 1 11 -4 24 -5 13 -6 27 -3 30
4 3 4 6 0 6 -3 0 -8 -3 -10 -7z"/>
<path d="M13629 11343 c-13 -16 -12 -17 4 -4 9 7 17 15 17 17 0 8 -8 3 -21
-13z"/>
<path d="M10877 11278 c-3 -9 1 -22 9 -29 12 -10 15 -10 12 2 -2 8 3 13 10 11
8 -1 11 2 7 8 -3 6 -10 8 -15 5 -4 -3 -10 0 -12 7 -3 8 -7 6 -11 -4z"/>
<path d="M13275 11258 c22 -33 18 -87 -10 -133 -13 -22 -25 -36 -25 -30 0 5
-7 -1 -16 -13 -8 -12 -20 -20 -25 -17 -5 4 -9 0 -9 -7 -1 -7 -9 2 -19 21 -12
23 -20 30 -23 20 -4 -12 -9 -12 -27 -1 -17 10 -21 10 -19 0 2 -7 -2 -12 -9
-11 -8 2 -10 -4 -6 -15 3 -9 3 -14 -1 -10 -4 4 -21 -8 -37 -27 -26 -29 -28
-37 -23 -79 4 -26 10 -49 14 -51 11 -7 148 92 200 144 44 44 70 100 70 149 0
29 -20 70 -37 76 -11 5 -11 1 2 -16z m-125 -176 c0 9 3 9 10 -2 12 -18 14 -40
2 -25 -9 13 -46 20 -38 7 3 -5 -1 -9 -8 -9 -11 0 -13 11 -7 35 1 1 10 -2 21
-8 15 -8 20 -8 20 2z"/>
<path d="M13099 11243 c-13 -16 -12 -17 4 -4 9 7 17 15 17 17 0 8 -8 3 -21
-13z"/>
<path d="M9366 11135 c15 -70 89 -239 142 -324 188 -304 501 -495 850 -520
173 -13 172 -20 19 143 -73 77 -205 220 -294 316 -160 174 -393 395 -368 350
4 -8 -2 -5 -14 8 -12 12 -25 22 -29 23 -60 8 -94 5 -103 -10 -9 -14 -10 -13
-6 4 3 18 -2 20 -49 21 -30 1 -51 -2 -48 -7 3 -5 10 -6 16 -3 7 4 8 2 4 -5 -6
-8 -12 -9 -20 -2 -9 7 -16 7 -25 -2 -7 -6 -12 -7 -11 -2 2 6 2 17 0 25 -1 11
-4 9 -10 -5 -8 -19 -9 -19 -9 -1 -1 19 -1 19 -15 1 -13 -18 -13 -18 -25 1 -10
16 -10 15 -5 -11z m302 -25 c2 -10 0 -11 -5 -4 -4 5 -25 10 -45 9 -20 -1 -35
2 -33 5 8 13 79 4 83 -10z"/>
<path d="M13189 11108 c-10 -33 6 -46 28 -24 4 4 1 6 -7 4 -8 -1 -14 3 -12 10
2 10 -6 19 -9 10z"/>
<path d="M12432 11075 c9 -19 8 -31 -2 -52 -29 -63 -30 -129 -1 -74 30 55 31
151 1 151 -6 0 -5 -9 2 -25z"/>
<path d="M11760 11026 c0 -16 21 -56 30 -56 18 0 11 35 -10 48 -11 7 -20 10
-20 8z"/>
<path d="M11189 11007 c7 -9 20 -17 29 -17 14 0 8 15 -6 15 -4 0 -14 4 -22 10
-13 8 -13 7 -1 -8z"/>
<path d="M11240 10988 c0 -4 7 -8 15 -8 8 0 15 4 15 8 0 5 -7 9 -15 9 -8 0
-15 -4 -15 -9z"/>
<path d="M10293 10955 c6 -11 -20 -51 -31 -48 -4 1 -5 -6 -4 -15 3 -14 1 -14
-15 -2 -15 12 -16 12 -5 0 6 -8 12 -25 11 -39 l-1 -26 -8 25 c-6 19 -8 20 -9
6 -1 -22 85 -126 268 -324 79 -85 129 -147 125 -154 -4 -6 -3 -8 3 -5 6 4 18
-2 28 -12 16 -19 16 -19 -2 -16 -10 2 -18 4 -18 5 0 1 -8 3 -18 5 -14 3 -16 0
-7 -10 6 -7 8 -19 4 -28 -6 -16 15 -17 96 -3 45 8 160 46 160 53 0 6 -299 321
-442 466 -87 89 -98 97 -107 79 -6 -11 -8 -22 -5 -24 3 -3 -6 -5 -18 -4 -19 1
-23 -4 -23 -26 1 -14 -3 -24 -7 -22 -11 7 -10 32 3 56 8 15 13 17 19 8 6 -9
11 -7 20 10 10 19 9 25 -5 39 -10 9 -15 11 -12 6z m9 -37 c-7 -7 -12 -8 -12
-2 0 14 12 26 19 19 2 -3 -1 -11 -7 -17z m358 -594 c0 -8 -19 -13 -24 -6 -3 5
1 9 9 9 8 0 15 -2 15 -3z"/>
<path d="M10555 10950 c-4 -6 -11 -8 -16 -5 -15 10 -10 -1 7 -15 12 -11 15
-11 12 1 -2 8 3 13 10 11 8 -1 11 2 7 8 -8 13 -12 13 -20 0z"/>
<path d="M10558 10773 c311 -326 358 -373 370 -373 7 0 36 15 63 33 49 31 50
32 28 47 -43 28 -178 137 -371 297 -147 122 -203 163 -223 163 -24 0 -10 -18
133 -167z"/>
<path d="M13335 10905 c-25 -11 -79 -22 -120 -25 -18 -1 28 -30 48 -30 29 0
86 30 98 51 5 11 8 19 7 18 -2 0 -16 -7 -33 -14z"/>
<path d="M13713 10883 c9 -2 23 -2 30 0 6 3 -1 5 -18 5 -16 0 -22 -2 -12 -5z"/>
<path d="M13098 10843 c6 -2 18 -2 25 0 6 3 1 5 -13 5 -14 0 -19 -2 -12 -5z"/>
<path d="M10591 10333 c1 -4 1 -15 0 -23 -1 -13 -2 -13 -11 0 -8 13 -10 12
-10 -2 0 -10 6 -18 14 -18 16 0 28 37 15 46 -5 3 -9 2 -8 -3z"/>
<path d="M10433 10065 c-3 -9 -3 -18 -1 -21 3 -3 8 4 11 16 6 23 -1 27 -10 5z"/>
<path d="M10301 10004 c0 -11 3 -14 6 -6 3 7 2 16 -1 19 -3 4 -6 -2 -5 -13z"/>
<path d="M10267 9995 c3 -8 9 -12 14 -9 12 7 11 11 -5 17 -10 4 -13 1 -9 -8z"/>
<path d="M10207 9979 c7 -7 15 -10 18 -7 3 3 -2 9 -12 12 -14 6 -15 5 -6 -5z"/>
<path d="M9895 9065 c-49 -17 -90 -63 -110 -124 -8 -25 -49 -235 -91 -466 -96
-532 -95 -568 8 -595 83 -23 166 25 206 118 22 53 172 890 172 964 0 56 -27
93 -78 108 -47 13 -58 12 -107 -5z"/>
<path d="M9140 8593 c0 -4 -21 -131 -46 -282 -54 -324 -56 -416 -12 -513 93
-203 359 -309 699 -278 366 33 613 203 702 485 18 55 107 531 107 570 l0 25
-259 0 -259 0 -6 -27 c-3 -16 -26 -145 -50 -287 -39 -225 -49 -268 -78 -325
-45 -88 -95 -124 -182 -129 -53 -3 -71 0 -104 18 -93 53 -98 124 -29 493 26
137 47 250 47 253 0 2 -119 4 -265 4 -146 0 -265 -3 -265 -7z"/>
<path d="M11005 8559 c55 -57 117 -96 306 -190 201 -100 234 -122 265 -174 29
-51 30 -98 6 -211 -22 -98 -38 -125 -89 -150 -55 -27 -174 -25 -229 4 -68 35
-78 81 -49 234 8 44 15 86 15 94 0 12 -40 14 -224 14 l-224 0 -6 -27 c-60
-298 -45 -400 76 -508 84 -75 181 -109 361 -125 254 -22 519 34 677 144 139
97 200 231 217 476 13 189 -67 299 -299 416 l-88 44 -377 0 -377 0 39 -41z"/>
<path d="M6675 9028 c-15 -63 -94 -552 -91 -556 10 -10 93 10 131 31 60 34 82
84 110 249 32 185 32 228 2 256 -26 24 -76 42 -119 42 -20 0 -29 -6 -33 -22z"/>
<path d="M6046 8583 c-3 -10 -21 -112 -41 -228 -58 -341 -136 -779 -141 -797
-5 -17 12 -18 250 -18 l254 0 6 28 c3 15 24 133 46 262 22 129 43 247 46 263
5 26 8 27 69 27 294 0 534 79 680 224 51 50 82 93 108 145 60 120 78 111 -221
111 l-259 0 -18 -39 c-35 -79 -112 -125 -229 -137 l-69 -7 6 46 c4 26 10 67
13 92 l7 45 -251 0 c-230 0 -251 -1 -256 -17z"/>
<path d="M8216 8836 c-20 -123 -40 -233 -43 -245 -5 -18 -1 -21 24 -21 54 0
130 29 155 59 34 40 43 68 69 219 l23 132 -20 27 c-24 31 -73 51 -130 52 l-41
1 -37 -224z"/>
<path d="M7620 8595 c0 -9 -110 -644 -145 -842 -19 -106 -35 -197 -35 -203 0
-7 85 -10 253 -10 l252 0 60 348 60 347 68 3 c48 2 69 -1 72 -10 2 -7 26 -164
52 -348 l48 -335 258 -3 c158 -1 257 1 257 7 0 5 -16 112 -35 238 -70 448 -86
568 -75 571 26 9 129 93 157 128 28 36 63 96 63 109 0 3 -120 5 -266 5 -251 0
-268 -1 -294 -20 -47 -33 -108 -50 -183 -50 l-70 0 6 35 6 35 -255 0 c-140 0
-254 -2 -254 -5z"/>
<path d="M12471 8548 c-6 -29 -24 -134 -41 -233 -16 -99 -52 -306 -80 -460
-27 -154 -50 -288 -50 -297 0 -17 19 -18 250 -18 l250 0 5 23 c4 20 53 300
106 607 10 63 22 127 25 143 l6 27 174 0 174 0 -5 -22 c-2 -13 -12 -66 -20
-118 -9 -52 -38 -218 -66 -368 -27 -151 -49 -278 -49 -283 0 -5 109 -9 255 -9
140 0 255 2 255 4 0 9 114 670 145 840 19 105 35 196 35 203 0 11 -125 13
-679 13 l-680 0 -10 -52z"/>
<path d="M14145 8588 c-2 -7 -16 -83 -30 -168 -33 -197 -144 -828 -150 -857
l-5 -23 255 0 c140 0 255 2 255 5 0 8 107 630 144 839 20 109 36 203 36 207 0
5 -113 9 -250 9 -192 0 -252 -3 -255 -12z"/>
<path d="M14956 8577 c-3 -12 -32 -180 -65 -372 -34 -193 -74 -421 -89 -508
l-29 -157 241 2 240 3 33 195 c18 107 56 323 83 480 27 157 53 306 56 333 l7
47 -236 0 -235 0 -6 -23z"/>
<path d="M15466 8563 c3 -21 39 -204 79 -408 40 -203 83 -425 96 -493 l23
-122 280 2 280 3 38 225 c21 124 61 350 88 503 28 152 50 288 50 302 l0 25
-234 0 -234 0 -10 -57 c-5 -32 -20 -121 -33 -197 -15 -93 -25 -133 -30 -120
-4 10 -17 77 -29 148 -11 71 -26 151 -31 177 l-11 49 -164 0 -165 0 7 -37z"/>
<path d="M16716 8592 c-3 -5 -26 -130 -51 -278 -26 -148 -66 -381 -91 -518
-24 -137 -44 -251 -44 -253 0 -1 255 -3 568 -3 l567 0 23 138 c13 75 26 145
28 155 5 16 -14 17 -311 17 l-316 0 5 33 c17 101 68 390 77 435 l10 52 273 0
272 0 17 103 c10 56 17 108 17 115 0 9 -111 12 -519 12 -286 0 -522 -4 -525
-8z"/>
<path d="M9470 7065 l0 -125 85 0 85 0 0 125 0 125 -85 0 -85 0 0 -125z"/>
<path d="M9350 6992 c0 -123 26 -142 200 -142 184 1 210 18 210 141 l0 79 -45
0 -45 0 0 -64 c0 -84 -15 -96 -115 -96 -100 0 -115 12 -115 96 l0 64 -45 0
-45 0 0 -78z"/>
<path d="M12056 7062 c-2 -4 -4 -51 -4 -105 l0 -97 179 0 179 0 0 30 0 30
-130 0 -130 0 0 60 0 60 100 0 c82 0 100 3 100 15 0 13 -23 15 -144 15 -80 0
-147 -3 -150 -8z"/>
<path d="M12580 6966 l0 -106 48 0 47 0 0 103 0 102 -47 3 -48 3 0 -105z"/>
<path d="M8766 7062 c-2 -4 -4 -51 -4 -105 l0 -97 49 0 49 0 0 105 0 105 -44
0 c-25 0 -47 -3 -50 -8z"/>
<path d="M8910 7063 c0 -4 14 -31 32 -60 31 -50 34 -53 74 -53 39 0 44 3 73
48 17 27 31 54 31 60 0 7 -16 12 -40 12 -30 0 -42 -5 -51 -21 l-11 -21 -14 21
c-11 15 -26 21 -55 21 -21 0 -39 -3 -39 -7z"/>
<path d="M9177 7063 c-4 -3 -7 -51 -7 -105 l0 -98 50 0 50 0 0 105 0 105 -43
0 c-24 0 -47 -3 -50 -7z"/>
<path d="M9960 7150 l0 -30 64 0 c66 0 83 11 70 45 -5 11 -22 15 -70 15 l-64
0 0 -30z"/>
<path d="M9840 6965 l0 -105 160 0 c185 0 213 8 229 65 8 32 2 89 -13 113 -13
22 -84 32 -228 32 l-148 0 0 -105z m288 53 c20 -20 15 -76 -7 -88 -11 -5 -56
-10 -100 -10 l-81 0 0 55 0 55 88 0 c55 0 92 -4 100 -12z"/>
<path d="M9960 6980 l0 -30 74 0 c78 0 92 7 81 40 -6 18 -15 20 -81 20 l-74 0
0 -30z"/>
<path d="M10350 6995 l0 -75 -30 0 c-27 0 -30 -3 -30 -30 l0 -30 110 0 c88 0
110 3 110 14 0 32 -13 46 -41 46 l-29 0 0 75 0 75 -45 0 -45 0 0 -75z"/>
<path d="M10580 6965 l0 -105 170 0 170 0 0 30 0 30 -125 0 -125 0 0 75 0 75
-45 0 -45 0 0 -105z"/>
<path d="M10980 6965 l0 -105 175 0 175 0 0 30 0 30 -130 0 -131 0 3 58 3 57
103 3 c76 2 102 6 99 15 -2 8 -46 13 -150 15 l-147 3 0 -106z"/>
<path d="M11700 7065 l0 -115 70 0 c85 0 90 7 90 115 0 108 -5 115 -90 115
l-70 0 0 -115z"/>
<path d="M11580 6966 l0 -106 145 0 c210 0 245 20 248 142 l2 63 -47 3 -48 3
0 -55 c0 -82 -18 -96 -120 -96 l-79 0 -3 73 -3 72 -47 3 -48 3 0 -105z"/>
<path d="M12997 7071 c-10 -23 -17 -44 -17 -46 0 -3 16 -5 36 -5 32 0 35 2 28
23 -3 12 -12 33 -19 46 -12 23 -12 23 -28 -18z"/>
<path d="M12831 6970 c-22 -55 -41 -103 -41 -106 0 -3 23 -4 52 -2 49 3 52 5
63 38 l12 35 98 0 98 0 12 -35 c11 -33 14 -35 65 -38 40 -2 51 0 47 10 -2 7
-21 55 -42 106 l-37 92 -49 0 -48 0 14 -40 14 -40 -74 0 -74 0 14 40 14 40
-48 0 -48 0 -42 -100z"/>
<path d="M13334 7057 c-2 -7 -3 -40 -2 -72 l3 -60 -32 -3 c-29 -3 -33 -7 -33
-33 l0 -29 110 0 110 0 0 30 c0 27 -3 30 -30 30 l-30 0 0 75 0 75 -45 0 c-28
0 -48 -5 -51 -13z"/>
<path d="M13560 6965 l0 -105 175 0 175 0 0 30 0 30 -125 0 -125 0 0 75 0 75
-50 0 -50 0 0 -105z"/>
<path d="M14007 7063 c-4 -3 -4 -37 0 -75 l6 -68 -37 0 c-33 0 -36 -2 -36 -30
l0 -30 110 0 110 0 0 30 c0 27 -3 30 -30 30 l-30 0 0 75 0 75 -43 0 c-24 0
-47 -3 -50 -7z"/>
<path d="M14237 7063 c-4 -3 -7 -51 -7 -105 l0 -98 50 0 50 0 0 105 0 105 -43
0 c-24 0 -47 -3 -50 -7z"/>
<path d="M14390 7064 c0 -3 28 -50 62 -105 l62 -99 53 0 53 0 0 105 0 105 -45
0 -45 0 0 -40 c0 -22 -3 -40 -7 -40 -5 0 -18 18 -31 40 -20 36 -26 40 -62 40
-22 0 -40 -3 -40 -6z"/>
<path d="M14700 7001 c0 -136 15 -147 195 -144 72 2 146 5 167 8 l36 6 -1 97
-2 97 -92 3 c-88 3 -93 2 -93 -18 0 -17 6 -20 45 -20 l45 0 0 -54 0 -53 -46
-7 c-134 -18 -158 -5 -158 85 l-1 64 -47 3 -48 3 0 -70z"/>
<path d="M11496 13827 c3 -10 9 -15 12 -12 3 3 0 11 -7 18 -10 9 -11 8 -5 -6z"/>
<path d="M11230 13818 c0 -9 5 -20 10 -23 13 -8 13 5 0 25 -8 13 -10 13 -10
-2z"/>
<path d="M11935 13820 c-3 -6 1 -7 9 -4 18 7 21 14 7 14 -6 0 -13 -4 -16 -10z"/>
<path d="M18657 9873 c-2 -1 -125 -3 -275 -3 -185 -1 -274 -5 -278 -12 -4 -7
-2 -8 4 -4 14 9 15 1 3 -23 -7 -13 -6 -18 4 -18 8 0 12 4 9 9 -3 4 -1 15 3 23
7 12 11 11 22 -8 13 -20 13 -21 -1 -9 -13 11 -15 9 -15 -13 0 -22 2 -24 15
-13 12 10 11 6 -2 -14 -17 -26 -15 -33 9 -28 5 1 3 -7 -6 -17 -19 -23 -18 -79
2 -75 11 3 11 1 2 -9 -10 -10 -10 -16 0 -28 10 -14 10 -14 -4 -3 -14 11 -16 9
-16 -13 0 -22 2 -24 15 -13 12 10 14 10 8 1 -6 -10 27 -13 148 -13 l156 0 0
-1130 0 -1130 -165 -1 c-189 -2 -181 -1 -192 -13 -5 -5 -2 -6 6 -1 9 5 12 3 9
-6 -3 -8 -11 -13 -17 -11 -8 2 -7 -5 3 -20 12 -17 13 -25 3 -37 -9 -12 -9 -13
1 -7 7 4 12 1 12 -9 0 -9 -4 -14 -8 -11 -5 3 -9 -1 -9 -9 0 -8 3 -12 7 -10 6
4 6 -77 0 -82 -6 -7 -6 -29 2 -45 7 -15 37 -17 323 -18 l315 0 -2 1412 -3
1413 -43 0 c-24 1 -44 0 -45 -2z m-513 -2575 c1 -7 6 -20 11 -28 8 -13 7 -13
-8 -1 -16 12 -17 11 -13 -10 3 -13 5 -28 5 -32 1 -5 7 -5 14 -1 9 5 9 4 0 -6
-10 -10 -10 -17 -1 -27 7 -9 8 -13 1 -11 -6 2 -11 -1 -11 -7 0 -5 5 -9 12 -7
7 2 7 0 -1 -9 -10 -9 -10 -16 -1 -26 7 -9 8 -13 1 -11 -6 2 -11 -1 -11 -7 0
-5 5 -9 12 -7 7 2 7 0 -1 -9 -10 -10 -10 -16 0 -28 11 -14 10 -14 -5 -2 -14
11 -18 11 -18 1 0 -19 -10 -6 -15 18 -2 11 3 26 11 32 7 7 11 17 7 24 -12 18
-12 35 -1 42 6 4 5 10 -3 15 -11 7 -11 9 -1 9 7 0 10 4 7 10 -3 5 -8 18 -10
27 -2 10 -4 23 -6 28 -3 13 12 47 18 41 2 -2 5 -10 7 -18z"/>
<path d="M18123 7095 c0 -8 4 -12 9 -9 5 3 6 10 3 15 -9 13 -12 11 -12 -6z"/>
<path d="M18110 9793 c5 -2 10 -9 10 -14 0 -6 -6 -7 -12 -3 -10 6 -10 4 0 -8
9 -12 10 -18 2 -23 -8 -5 -8 -11 -1 -19 7 -9 7 -17 -2 -26 -9 -10 -9 -11 0 -6
9 5 11 -3 9 -28 -2 -19 -6 -38 -9 -43 -4 -5 0 -10 7 -10 8 0 12 6 9 13 -2 6 1
15 6 19 6 3 8 12 4 18 -10 17 -11 67 -1 73 5 3 5 11 1 17 -4 7 -8 18 -8 26 0
8 -6 15 -13 17 -7 1 -8 0 -2 -3z"/>
<path d="M13113 4243 c0 -9 4 -10 14 -2 7 6 13 12 13 14 0 1 -6 2 -13 2 -8 0
-14 -6 -14 -14z"/>
</g>
</svg>
